<svg xmlns="http://www.w3.org/2000/svg" xmlns:xlink="http://www.w3.org/1999/xlink" width="60" height="60" viewBox="0 0 60 60"><defs><clipPath id="a"><rect width="8.526" height="10.751" transform="translate(0 0)" fill="#f28599"/></clipPath></defs><g transform="translate(-5094 586)"><rect width="60" height="60" transform="translate(5094 -586)" fill="none"/><g transform="translate(-40 8.242)"><g transform="translate(5149.27 -586.213)"><g transform="translate(0 0)"><path d="M50.063,25.311a8.453,8.453,0,0,1-2.056-.257.488.488,0,0,1,.257-.942,6.65,6.65,0,0,0,4.711-.428,6.861,6.861,0,0,0,3.041-3,5.375,5.375,0,0,1-2.056-1.97c-1.285-2.013-1.5-4.411-1.713-6.767-.214-2.313-.385-4.454-1.542-6.3l-.043-.043A9.521,9.521,0,0,0,42.44.985H41.283a9.779,9.779,0,0,0-8.266,4.668l-.043.043c-1.113,1.841-1.328,3.983-1.542,6.3S31,16.746,29.72,18.759a5.379,5.379,0,0,1-2.056,1.97,6.452,6.452,0,0,0,3.041,3,6.89,6.89,0,0,0,4.711.428.488.488,0,1,1,.257.942,7.838,7.838,0,0,1-5.4-.471,7.678,7.678,0,0,1-3.683-3.94l-.215-.557.471-.171A4.133,4.133,0,0,0,28.863,18.2c1.156-1.841,1.328-4.026,1.542-6.338s.428-4.711,1.67-6.724l.043-.043A10.952,10.952,0,0,1,41.283,0h1.156a10.75,10.75,0,0,1,9.079,5.1l.043.043c1.242,2.013,1.456,4.411,1.67,6.724s.428,4.5,1.542,6.338a3.918,3.918,0,0,0,2.013,1.756l.471.171-.214.471a7.69,7.69,0,0,1-3.683,3.94,7.182,7.182,0,0,1-3.3.771Z" transform="translate(-23.886 -0.029)" fill="#939a9a"/><path d="M32.768,336.717H2.189A2.26,2.26,0,0,1,.476,335.9a2.159,2.159,0,0,1-.428-1.841L1.5,327.3a4.857,4.857,0,0,1,3.469-3.383L6.9,323.4c.771-.214,1.585-.428,2.356-.642,3.341-.942,3.854-2.27,4.454-3.769.043-.171.128-.3.171-.471a.489.489,0,1,1,.9.385c-.043.171-.128.3-.171.471-.642,1.628-1.285,3.255-5.1,4.326-.771.214-1.585.428-2.356.642l-1.927.514a4.068,4.068,0,0,0-2.784,2.741l-1.413,6.767a1.155,1.155,0,0,0,.257,1.028,1.1,1.1,0,0,0,.942.428H32.768a1.227,1.227,0,0,0,.942-.428,1.259,1.259,0,0,0,.257-1.028l-1.413-6.767a4.068,4.068,0,0,0-2.784-2.741l-1.927-.514c-.814-.214-1.585-.428-2.356-.642-3.769-1.071-4.454-2.741-5.1-4.326-.043-.171-.128-.3-.171-.471a.489.489,0,1,1,.9-.385,2.078,2.078,0,0,1,.171.471c.6,1.5,1.113,2.827,4.454,3.769.771.214,1.585.428,2.356.642l1.927.514A5.093,5.093,0,0,1,33.5,327.3v.043l1.413,6.767a2.348,2.348,0,0,1-.428,1.841,2.444,2.444,0,0,1-1.712.771Z" transform="translate(0.476 -293.919)" fill="#939a9a"/><path d="M128.772,130.63a6.238,6.238,0,0,1-5.182-2.955,19.8,19.8,0,0,1-2.955-8.137c-.428-3.383.985-5.011,2.27-5.739,2.441-1.456,6.6-.814,9.636,1.456a41.017,41.017,0,0,0,4.326,2.912l.3.171-.043.343A26.138,26.138,0,0,1,134,127.675a6.368,6.368,0,0,1-5.225,2.955Zm-2.7-16.66a5.355,5.355,0,0,0-2.7.642c-1.456.856-2.1,2.527-1.8,4.8a18.392,18.392,0,0,0,2.827,7.709,5.213,5.213,0,0,0,4.369,2.527,5.34,5.34,0,0,0,4.411-2.527,24.96,24.96,0,0,0,2.912-8.266,40.416,40.416,0,0,1-4.154-2.827,10.278,10.278,0,0,0-5.867-2.056Z" transform="translate(-110.86 -104.406)" fill="#939a9a"/></g></g><g transform="translate(5144 -583.34)"><g transform="translate(0 0)" clip-path="url(#a)"><path d="M2.224,4.448a.371.371,0,0,0,.371-.371A1.483,1.483,0,0,1,4.078,2.595a.371.371,0,0,0,0-.741A1.483,1.483,0,0,1,2.595.371a.371.371,0,0,0-.741,0A1.483,1.483,0,0,1,.371,1.854a.371.371,0,0,0,0,.741A1.483,1.483,0,0,1,1.854,4.078a.371.371,0,0,0,.371.371m0-2.849a2.239,2.239,0,0,0,.625.625,2.239,2.239,0,0,0-.625.625A2.239,2.239,0,0,0,1.6,2.224,2.239,2.239,0,0,0,2.224,1.6" transform="translate(0 0)" fill="#f28599"/><path d="M28.176,51.837a.371.371,0,1,0,0-.741A2.6,2.6,0,0,1,25.581,48.5a.371.371,0,0,0-.741,0A2.6,2.6,0,0,1,22.245,51.1a.371.371,0,0,0,0,.741,2.6,2.6,0,0,1,2.595,2.595.371.371,0,0,0,.741,0,2.6,2.6,0,0,1,2.595-2.595ZM25.21,52.9a3.358,3.358,0,0,0-1.438-1.438,3.358,3.358,0,0,0,1.438-1.438,3.358,3.358,0,0,0,1.438,1.438A3.358,3.358,0,0,0,25.21,52.9" transform="translate(-20.021 -44.052)" fill="#f28599"/></g></g></g></g></svg>