<svg xmlns="http://www.w3.org/2000/svg" width="60" height="60" viewBox="0 0 60 60"><g transform="translate(-5445 595)"><rect width="60" height="60" transform="translate(5445 -595)" fill="none"/><g transform="translate(5453 -589.1)"><g transform="translate(0 4.306)"><g transform="translate(2.697 16.357)"><path d="M8.837,63.249H7.59a.949.949,0,0,1-.89-.668c-.089-.356-.178-.579-.223-.846-.445-1.425-.445-1.425-.4-9.884V41.834a.534.534,0,0,1,1.069,0V51.852c0,8.281,0,8.281.356,9.617a5.457,5.457,0,0,1,.178.712H8.7c.045-.223.134-.4.178-.579.4-1.514.4-1.514.4-9.973V41.834a.534.534,0,1,1,1.069,0v9.795c0,8.593,0,8.593-.445,10.24-.045.223-.134.445-.178.712A.909.909,0,0,1,8.837,63.249Z" transform="translate(-6.058 -41.3)" fill="#939a9a"/></g><path d="M8.682,21.987H1.024A1.008,1.008,0,0,1,0,20.963V17.134a13.028,13.028,0,0,1,1.291-5.3,7.812,7.812,0,0,0,.8-2.671V7.295a2.8,2.8,0,0,1,.89-2.048A2.816,2.816,0,0,1,5.12,4.579,2.85,2.85,0,0,1,7.613,7.428V9.254a7.162,7.162,0,0,0,.8,2.671,12.992,12.992,0,0,1,1.291,5.254v3.829A1.028,1.028,0,0,1,8.682,21.987ZM1.069,20.918H8.637V17.134a12.322,12.322,0,0,0-1.2-4.853,8.278,8.278,0,0,1-.89-3.072V7.384A1.75,1.75,0,0,0,5.031,5.6a1.551,1.551,0,0,0-1.291.445,1.617,1.617,0,0,0-.534,1.247V9.209a8.278,8.278,0,0,1-.89,3.072,11.6,11.6,0,0,0-1.2,4.853v3.784Z" transform="translate(0 -4.562)" fill="#939a9a"/><g transform="translate(4.319 37.237)"><path d="M10.234,91.628a.514.514,0,0,1-.534-.534v-2.36a.534.534,0,1,1,1.069,0v2.36A.541.541,0,0,1,10.234,91.628Z" transform="translate(-9.7 -88.2)" fill="#939a9a"/></g><g transform="translate(1.798 5.215)"><path d="M9.632,17.711a.337.337,0,0,1-.178-.045,8.5,8.5,0,0,0-4.719,0,.535.535,0,1,1-.312-1.024,10.06,10.06,0,0,1,5.387,0,.554.554,0,0,1,.356.668A.6.6,0,0,1,9.632,17.711Z" transform="translate(-4.039 -16.275)" fill="#939a9a"/></g></g><g transform="translate(11.754 4.1)"><g transform="translate(9.617 4.319)"><path d="M50.582,14.869H48.534a.534.534,0,0,1,0-1.069h2.048a.514.514,0,0,1,.534.534A.541.541,0,0,1,50.582,14.869Z" transform="translate(-48 -13.8)" fill="#939a9a"/></g><g transform="translate(0 8.548)"><path d="M34.77,55.623a26.04,26.04,0,0,1-5.076-.49A4.444,4.444,0,0,1,26.4,50.948V27.663A4.37,4.37,0,0,1,30.763,23.3h7.791a4.37,4.37,0,0,1,4.363,4.363v5.031a.534.534,0,0,1-1.069,0V27.663a3.287,3.287,0,0,0-3.295-3.295H30.763a3.316,3.316,0,0,0-3.295,3.295v23.33a3.394,3.394,0,0,0,2.449,3.117,24.771,24.771,0,0,0,9.795-.045.535.535,0,1,1,.312,1.024A23.1,23.1,0,0,1,34.77,55.623Z" transform="translate(-26.4 -23.3)" fill="#939a9a"/></g><g transform="translate(2.627)"><path d="M42.406,13.672H33.5V9.4a1.724,1.724,0,0,1-1.2-1.647V5.614A1.5,1.5,0,0,1,33.814,4.1H42.05a1.5,1.5,0,0,1,1.514,1.514V7.751a1.724,1.724,0,0,1-1.2,1.647v4.274ZM34.571,12.6h6.723V8.374h.534a.685.685,0,0,0,.668-.668V5.614a.446.446,0,0,0-.445-.445H33.858a.446.446,0,0,0-.445.445V7.751a.685.685,0,0,0,.668.668h.534V12.6Z" transform="translate(-32.3 -4.1)" fill="#939a9a"/></g><g transform="translate(3.873 4.319)"><path d="M37.682,14.869H35.634a.534.534,0,0,1,0-1.069h2.048a.514.514,0,0,1,.534.534A.541.541,0,0,1,37.682,14.869Z" transform="translate(-35.1 -13.8)" fill="#939a9a"/></g></g><g transform="translate(22.261 22.71)"><path d="M61.13,68.161a11.13,11.13,0,1,1,11.13-11.13A11.135,11.135,0,0,1,61.13,68.161Zm0-21.192A10.062,10.062,0,1,0,71.192,57.03,10.052,10.052,0,0,0,61.13,46.969Z" transform="translate(-50 -45.9)" fill="#f28599"/><g transform="translate(8.593 1.781)"><path d="M72.149,58.137a.483.483,0,0,1-.4-.178A9.192,9.192,0,0,1,69.3,52.749a2.849,2.849,0,1,1,5.7,0,.534.534,0,0,1-1.069,0,1.781,1.781,0,1,0-3.562,0,8.344,8.344,0,0,0,2.182,4.5.551.551,0,0,1-.045.757A.506.506,0,0,1,72.149,58.137Z" transform="translate(-69.3 -49.9)" fill="#f28599"/></g><g transform="translate(2.928 4.976)"><path d="M61.44,63.142a7.274,7.274,0,0,1-3.428-.712,2.872,2.872,0,1,1,2.849-4.986.519.519,0,0,1-.534.89,1.795,1.795,0,0,0-1.781,3.117,8.221,8.221,0,0,0,4.986.356.542.542,0,1,1,.178,1.069A8.3,8.3,0,0,1,61.44,63.142Z" transform="translate(-56.577 -57.077)" fill="#f28599"/></g><g transform="translate(2.953 11.441)"><path d="M59.512,77.431a4.386,4.386,0,0,1-.757-.089,2.756,2.756,0,0,1-1.736-1.336,2.859,2.859,0,0,1,1.069-3.918.519.519,0,0,1,.534.89,1.813,1.813,0,0,0-.668,2.449,1.846,1.846,0,0,0,1.069.846A1.893,1.893,0,0,0,60.4,76.1a8.623,8.623,0,0,0,2.8-4.141.521.521,0,1,1,.979.356,9.294,9.294,0,0,1-3.25,4.719A2.762,2.762,0,0,1,59.512,77.431Z" transform="translate(-56.633 -71.598)" fill="#f28599"/></g><g transform="translate(8.593 12.293)"><path d="M72.149,81.743A2.869,2.869,0,0,1,69.3,78.894a.534.534,0,1,1,1.069,0,1.781,1.781,0,0,0,3.562,0,8.344,8.344,0,0,0-2.182-4.5.536.536,0,0,1,.8-.712A8.885,8.885,0,0,1,75,78.894,2.813,2.813,0,0,1,72.149,81.743Z" transform="translate(-69.3 -73.511)" fill="#f28599"/></g><g transform="translate(12.37 11.228)"><path d="M82.511,77.165a2.762,2.762,0,0,1-1.425-.4.519.519,0,0,1,.534-.89,1.838,1.838,0,0,0,1.38.178,1.69,1.69,0,0,0,1.069-.846,1.838,1.838,0,0,0,.178-1.38,1.69,1.69,0,0,0-.846-1.069,8.221,8.221,0,0,0-4.986-.356.542.542,0,0,1-.178-1.069,9.083,9.083,0,0,1,5.743.49,2.913,2.913,0,0,1,1.336,1.736,3.077,3.077,0,0,1-.267,2.182,2.913,2.913,0,0,1-1.736,1.336A5.5,5.5,0,0,1,82.511,77.165Z" transform="translate(-77.785 -71.118)" fill="#f28599"/></g><g transform="translate(12.376 5.001)"><path d="M78.333,62.95a.268.268,0,0,1-.178-.045.5.5,0,0,1-.312-.668,9.294,9.294,0,0,1,3.25-4.719,2.676,2.676,0,0,1,2.182-.267,2.756,2.756,0,0,1,1.736,1.336,2.676,2.676,0,0,1,.267,2.182A2.756,2.756,0,0,1,83.943,62.5a.519.519,0,1,1-.534-.89,1.846,1.846,0,0,0,.846-1.069,1.893,1.893,0,0,0-.178-1.38,1.846,1.846,0,0,0-1.069-.846,1.893,1.893,0,0,0-1.38.178,8.623,8.623,0,0,0-2.8,4.141A.5.5,0,0,1,78.333,62.95Z" transform="translate(-77.798 -57.132)" fill="#f28599"/></g></g></g></g></svg>