<svg xmlns="http://www.w3.org/2000/svg" xmlns:xlink="http://www.w3.org/1999/xlink" width="236.984" height="42.555" viewBox="0 0 236.984 42.555"><defs><clipPath id="a"><rect width="236.984" height="42.555" fill="none"/></clipPath></defs><g clip-path="url(#a)"><path d="M196.509,47.183h.789c.936,0,1.466-.8,1.466.485v6.788c0,.349.564.394.789.394v.226h-3.044V54.85c.226,0,.789-.045.789-.394V47.8c0-.35-.564-.394-.789-.394Z" transform="translate(-72.906 -17.414)" fill="#5f5e5e"/><path d="M191.091,54.668l-3.078-7.34h-.225l-3.181,7.561.213.038,1.12-2.648h2.683l.97,2.322c.147.35-.3.4-.53.4v.225h3.044V55c-.214,0-.879-.011-1.015-.327m-5.051-2.616,1.24-2.976,1.252,2.976Z" transform="translate(-68.49 -17.559)" fill="#5f5e5e"/><path d="M183.177,59.162c-.917,2.016-1.025,1.212-1.756,1.19a.715.715,0,1,0-.158,1.421c.611.108,1.08-.195,2.076-2.456-.055-.051-.108-.1-.162-.155" transform="translate(-67.01 -21.949)" fill="#5f5e5e"/><path d="M205.71,50.266a3.091,3.091,0,1,1-3,3.089,2.94,2.94,0,0,1,3-3.089m1.042,5.762c1.067-.361.657-2.526.3-3.315s-1.451-2.312-2.481-1.984c-1.054.349-.558,2.345-.223,3.18s1.34,2.481,2.407,2.12" transform="translate(-75.205 -18.649)" fill="#5f5e5e"/><path d="M213.456,47.183h.789c.936,0,1.466-.8,1.466.485v6.788c0,.349.564.394.789.394v.226h-3.044V54.85c.226,0,.789-.045.789-.394V47.8c0-.35-.564-.394-.789-.394Z" transform="translate(-79.193 -17.414)" fill="#5f5e5e"/><path d="M220.264,55c.226,0,.789-.045.789-.394V50.2c0-.349-.564-.394-.789-.394v-.226h.789c.936,0,1.466-.8,1.466.485V54.6c0,.349.564.394.789.394v.226h-3.044Zm1.522-7.667a.733.733,0,1,1-.733.733.732.732,0,0,1,.733-.733" transform="translate(-81.719 -17.559)" fill="#5f5e5e"/><path d="M231.207,54.822a2.614,2.614,0,0,1-1.364.677,2.311,2.311,0,0,1-2.075-1.691,6.255,6.255,0,0,1-.221-.828,2.671,2.671,0,0,1-.072-.472c-.084-.794-.008-1.63.576-1.846.437-.174.925.249,1.288.889.472-.081.952-.119,1.415-.241a2.331,2.331,0,0,0-1.835-1.042c-1.286-.045-2.6,1.116-2.6,3.09a2.855,2.855,0,0,0,2.909,3.089,2.374,2.374,0,0,0,2.176-1.5Z" transform="translate(-83.963 -18.649)" fill="#5f5e5e"/><path d="M229.381,55.536a.664.664,0,0,1,.066-.825c.692-.72,3.358-1.193,2.3-2.786l-1.415.242c.525,1.126-.943,1.8-1.225,2.391-.216.448-.055.528-.055.528Z" transform="translate(-84.957 -19.264)" fill="#5f5e5e"/><path d="M249.689,53.4l.2.124a3.935,3.935,0,0,1-7.262-2.368,3.929,3.929,0,0,1,3.687-4.206,3.856,3.856,0,0,1,2.932,1.15,1.29,1.29,0,0,1,.127,1.594l-.353-.139c.162-1.683-2.018-2.424-2.83-2.379-1.861.1-3.056,2.334-2.2,4.668.993,2.74,3.868,3.924,5.694,1.556" transform="translate(-90.017 -17.419)" fill="#5f5e5e"/><path d="M251.456,50.658c-.088.377-.531.341-.867-.18-.669-1.049-1.913-.457-1.177.447a1.551,1.551,0,0,0,2.4-.128c-.086-.093-.265-.047-.352-.139" transform="translate(-92.449 -18.521)" fill="#5f5e5e"/><path d="M255.643,47.183h.789c.936,0,1.466-.8,1.466.485v6.788c0,.349.564.394.789.394v.226h-3.044V54.85c.226,0,.789-.045.789-.394V47.8c0-.35-.564-.394-.789-.394Z" transform="translate(-94.845 -17.414)" fill="#5f5e5e"/><path d="M261.739,55c.225,0,.789-.045.789-.394V50.2c0-.349-.564-.394-.789-.394v-.226h.789c.936,0,1.466-.8,1.466.485V54.6c0,.349.564.394.789.394v.226h-3.044Zm1.522-7.667a.733.733,0,1,1-.733.733.732.732,0,0,1,.733-.733" transform="translate(-97.106 -17.559)" fill="#5f5e5e"/><path d="M279.578,55c.225,0,.789-.045.789-.394V50.2c0-.349-.564-.394-.789-.394v-.226h.789c.936,0,1.466-.8,1.466.485V54.6c0,.349.564.394.789.394v.226h-3.044Zm1.522-7.667a.733.733,0,1,1-.733.733.731.731,0,0,1,.733-.733" transform="translate(-103.725 -17.559)" fill="#5f5e5e"/><path d="M288.889,55.7a2.614,2.614,0,0,0,1.364-.677l.192.125a2.374,2.374,0,0,1-2.176,1.5,2.856,2.856,0,0,1-2.909-3.09,2.81,2.81,0,0,1,2.6-3.09,2.09,2.09,0,0,1,2.21,1.6c.147.823-.981,1.218-1.3.236-.5-1.556-1.33-1.623-1.781-1.443-.959.36-.552,2.413-.282,3.146a2.309,2.309,0,0,0,2.074,1.691" transform="translate(-105.87 -18.723)" fill="#5f5e5e"/><path d="M271.554,50.7c1.037,0,1.128,1.466,1.128,2.232V56.5h1.466V52.928a2.271,2.271,0,0,0-2.3-2.48,1.791,1.791,0,0,0-1.759,1.2v-.417c0-1.286-.53-.485-1.466-.485h-.789v.225c.226,0,.789.045.789.4v4.4c0,.35-.564.394-.789.394v.226h3.044v-.226c-.225,0-.789-.045-.789-.394v-2.83c0-1.251.643-2.232,1.466-2.232" transform="translate(-99.367 -18.716)" fill="#5f5e5e"/><path d="M277.009,60.381v-.318h-1.466c0,.2.006.4.006.485a2.272,2.272,0,0,0,2.248,2.039l.011-.156c-.847-.1-.8-1.254-.8-2.05" transform="translate(-102.228 -22.284)" fill="#5f5e5e"/><path d="M280.52,61.544a.55.55,0,1,0-1.068.26c.063.4.757.513.2.9a1.051,1.051,0,0,1-.516.12c.016.066-.021.089-.011.156.881,0,1.606-.832,1.394-1.436" transform="translate(-103.556 -22.676)" fill="#5f5e5e"/><path d="M276.741,9.622v2.414L271.9,17.522l0-6.807.269-1.1-1.764.011V18.47l1.333.123,5-5.548v3.263a10.03,10.03,0,0,1-3.114,7.445l-.076.072.282.211.052-.032a9.639,9.639,0,0,0,3.4-3.415,8.845,8.845,0,0,0,1-4.281V10.687l.287-1.076Z" transform="translate(-100.321 -3.566)" fill="#f28599"/><path d="M249.664,10.964l-.652.226-4.612-.023.019-.03a3.769,3.769,0,0,0,.35-.676l.549-.52L243.8,9.3l-.031.089a14.432,14.432,0,0,1-5.27,7.12l-.082.062.248.248.057-.03a16.172,16.172,0,0,0,5.3-4.8l4.812-.013a18.323,18.323,0,0,1-10.225,11.495l-.107.051.247.281.057-.018c5.859-1.922,9.392-5.306,11.456-10.975l.7-1.2Z" transform="translate(-88.454 -3.451)" fill="#f28599"/><path d="M368.076,10.964l-.652.226-4.612-.023.019-.03a3.725,3.725,0,0,0,.35-.676l.549-.52L362.215,9.3l-.031.089a14.427,14.427,0,0,1-5.27,7.12l-.082.062.248.248.057-.03a16.17,16.17,0,0,0,5.3-4.8l4.812-.013a18.322,18.322,0,0,1-10.225,11.495l-.106.051.247.281.056-.018c5.859-1.922,9.393-5.306,11.457-10.975l.7-1.2Z" transform="translate(-132.386 -3.451)" fill="#f28599"/><path d="M310.085,20.1l-1.975.29a67.433,67.433,0,0,0-9.178.089l8.733-6.782-.635-1.016-.064.016a24.1,24.1,0,0,1-5.944.853,17.5,17.5,0,0,1-3.07-.278l-.063-.011-.17.308.088.04a12.276,12.276,0,0,0,8.193.6l-8.079,6.352c-1.136.1-2.134.241-2.879.353l-.11.016.537,1.374,1.44-.508a47.59,47.59,0,0,1,6.976-.427,62.964,62.964,0,0,1,6.477.316l.127.013Z" transform="translate(-109.421 -4.703)" fill="#f28599"/><path d="M328.76,17.816l-.048-.031-.275.172.052.077a8.643,8.643,0,0,1,1.435,3.79l.011.091,1.153-.174,0-.078a4.593,4.593,0,0,0-2.327-3.846" transform="translate(-121.851 -6.598)" fill="#f28599"/><path d="M339.605,16.938,335.949,19.7a4.3,4.3,0,0,0-2.365-3.039l-.038-.022-.307.136.062.089a8.325,8.325,0,0,1,1.509,3.624l.012.082,1.056-.083,3.146-2.316a12.243,12.243,0,0,1-1.8,4.539,11.66,11.66,0,0,1-3.561,3.228l-.1.064.281.245.051-.021a11.315,11.315,0,0,0,4.459-3.149,10.919,10.919,0,0,0,2.229-4.907l.48-.673Z" transform="translate(-123.633 -6.174)" fill="#f28599"/><path d="M114.328,10.63l-.625.273L101.266,10.9l.442.907,5.233-.006a23.079,23.079,0,0,1-.979,7.119,14.544,14.544,0,0,1-3.277,5.2l-.068.067.274.24.058-.043a13.5,13.5,0,0,0,5.161-8.06,14.509,14.509,0,0,0,4-1.577,10.935,10.935,0,0,0,3.266-2.954l.2-.242Zm-.882,1.173a7.931,7.931,0,0,1-2.047,2.2,12.236,12.236,0,0,1-3.2,1.735c.155-1.079.268-3.457.289-3.937Z" transform="translate(-37.57 -3.944)" fill="#f28599"/><path d="M145.03,21.2l-.662.187.206-6.688.279-.371-1.016-.635-.487.235-7.522.053.088-.491-1.533-.009.313,8.68,0,.1,1.212-.2h9.575Zm-1.806-6.631-.15,6.888h-7.089l-.157-6.823c.854-.034,6.426-.082,7.4-.064" transform="translate(-49.857 -5.004)" fill="#f28599"/><path d="M174.343,9.643v2.414L169.5,17.543l0-6.807.269-1.1-1.764.011v8.847l1.333.123,5-5.548v3.263a10.032,10.032,0,0,1-3.113,7.445l-.077.072.282.211.052-.032a9.634,9.634,0,0,0,3.4-3.415,8.838,8.838,0,0,0,1-4.281V10.708l.288-1.076Z" transform="translate(-62.33 -3.574)" fill="#f28599"/><path d="M209.381,20.117l-1.975.29c-1.529-.1-3.153-.133-4.83-.106V14.813l-.273-.164a13.969,13.969,0,0,0,2.993-.426l-1.613,1.269.086.07c.114.094.228.185.343.277l.055.043,2.793-2.169-.635-1.016-.064.016a24.124,24.124,0,0,1-5.944.852,17.5,17.5,0,0,1-3.07-.278l-.063-.011-.17.308.088.04a11.6,11.6,0,0,0,3.919.993v5.724c-1.045.039-2.084.1-3.092.177-.028,0-2.726.281-3.592.41l-.11.016.537,1.374,1.44-.508a47.6,47.6,0,0,1,6.976-.426,62.965,62.965,0,0,1,6.477.316l.127.013Z" transform="translate(-72.059 -4.711)" fill="#f28599"/><path d="M39.165,44.2c-.126.069-.248.115-.358.181q-.474.281-.011.562a2.063,2.063,0,0,1,.789,1.159,5.331,5.331,0,0,0,.23.623,3.923,3.923,0,0,1,.391,1.695,7.32,7.32,0,0,1-.123,1.346c-.03.2-.447.293-.645.152-.314-.225-.608-.484-.942-.676a2.127,2.127,0,0,1-.754-.742,12.125,12.125,0,0,1-.622-1.231c-.122-.262-.218-.536-.318-.808-.053-.144-.088-.3-.139-.442a1.149,1.149,0,0,0-.1-.176.613.613,0,0,0-.154.093,4.634,4.634,0,0,1-1.793,1.33c-.491.191-.993.356-1.491.533-.309.11-.62.22-.929.331a.98.98,0,0,1-1.248-.385.916.916,0,0,1,.156-.909c.648-.607,1.284-1.232,1.974-1.789a7.308,7.308,0,0,1,1.771-1.224.466.466,0,0,0,.125-.053c.1-.083.245-.16.274-.266.022-.082-.079-.243-.17-.3a3.709,3.709,0,0,1-1.218-1.884,3.945,3.945,0,0,0-.3-.736,1.566,1.566,0,0,1-.228-.73,1.939,1.939,0,0,1-.086-.433.725.725,0,0,1,.778-.593,4.17,4.17,0,0,1,.956.35,3.329,3.329,0,0,1,1.2,1.023c.286.406.539.837.784,1.269a3.344,3.344,0,0,1,.186.545c.07.2.152.214.311.089.562-.443,1.11-.909,1.7-1.316a4.3,4.3,0,0,1,1.032-.467,5.561,5.561,0,0,1,1.545-.35.521.521,0,0,1,.591.494,1.89,1.89,0,0,1-.067.706c-.133.336-.353.637-.52.96a3.815,3.815,0,0,1-1.383,1.265q-.529.372-1.061.741c-.036.025-.084.035-.137.065" transform="translate(-11.459 -14.401)" fill="#a6a7a7"/><path d="M44.364,23.951a5.591,5.591,0,0,0,.668-.205,3.272,3.272,0,0,1,1.086-.167c.267-.033.3-.095.164-.317a1.286,1.286,0,0,1-.147-.669,5.009,5.009,0,0,0-.267-.982,2.56,2.56,0,0,1-.033-1.88c.14-.289.177-.626.3-.923a1.045,1.045,0,0,1,1.615-.413,3.539,3.539,0,0,1,1.073.922c.192.292.36.6.527.908.123.225.228.459.339.69a.281.281,0,0,1,.027.1c.035.484.069.969.1,1.452a.665.665,0,0,0,.037.272.254.254,0,0,0,.207.114c.48-.111.95-.272,1.434-.356a3.332,3.332,0,0,1,2.371.46c.265.162.586.23.751.54a1.181,1.181,0,0,1-.183,1.13,4.168,4.168,0,0,0-.385.472,3.155,3.155,0,0,1-1.044.812,2.33,2.33,0,0,1-1.049.374,9.874,9.874,0,0,1-1.012-.006,2.224,2.224,0,0,1-.408-.152,1.993,1.993,0,0,0-.429-.081c-.176-.011-.17.114-.155.244.044.37.082.741.122,1.111a4.757,4.757,0,0,1,.065.643c-.013.445-.067.889-.079,1.334-.007.266-.154.5-.09.793.095.439-.489.864-.913.92-.6.079-.793-.357-1.038-.679a7.048,7.048,0,0,1-.83-1.439,3.3,3.3,0,0,1-.216-2.386.418.418,0,0,0,.009-.1.45.45,0,0,0-.151.023,5.877,5.877,0,0,1-1.028.567,2.924,2.924,0,0,1-2.224.164,4.5,4.5,0,0,1-1.137-.876.794.794,0,0,1,.124-1.064c.288-.26.577-.521.843-.8a2.853,2.853,0,0,1,.949-.547" transform="translate(-15.691 -6.743)" fill="#a6a7a7"/><path d="M23.373,5.46c.308-.308.486-.721.907-.89.043-.018.061-.1.091-.15a.781.781,0,0,0-.146-.045,8.727,8.727,0,0,0-1.812.01,5.187,5.187,0,0,1-1.549-.167.766.766,0,0,1-.648-.562,1,1,0,0,1,.358-1.064,4,4,0,0,1,1.373-.781,4.719,4.719,0,0,1,.962-.121,4.493,4.493,0,0,1,1.662.276,8.743,8.743,0,0,1,1.084.405.639.639,0,0,0,.722-.11c.318-.259.622-.539.957-.776S28.064,1.1,28.37.84A3.8,3.8,0,0,1,29.9.252a3.256,3.256,0,0,1,.579-.1c.489-.055.978-.106,1.469-.142a1.054,1.054,0,0,1,.508.047c.27.126.279.449.181.73-.179.514-.633.692-1.021.957-.7.479-1.408.953-2.11,1.433a5.012,5.012,0,0,0-.489.37c-.172.15-.121.226.072.341a4.723,4.723,0,0,1,.935.662,5.371,5.371,0,0,1,.9,1.115A5.32,5.32,0,0,1,31.708,7.1c.008.032.037.058.045.091.08.343.156.686.237,1.028a1.33,1.33,0,0,1-.339,1.2c-.2.241-.49.135-.743.17-.648.09-.8-.438-1.067-.834a15.4,15.4,0,0,0-1.127-1.577,13.522,13.522,0,0,0-1.288-1.138,3.7,3.7,0,0,1-.418-.4c-.15-.179-.267-.116-.387.018a2.649,2.649,0,0,1-.482.525c-.237.144-.3.376-.445.567a10.908,10.908,0,0,0-1.126,2.285,11.119,11.119,0,0,1-.753,1.345.439.439,0,0,1-.611.088,1.073,1.073,0,0,1-.547-1.093,2.569,2.569,0,0,0-.164-.7,2.4,2.4,0,0,1,.043-.981,3.807,3.807,0,0,1,.345-1.283c.17-.306.322-.624.494-.952" transform="translate(-7.488 0)" fill="#a6a7a7"/><path d="M56.058,54.062c-.321-.243-.64-.457-.932-.7a3.132,3.132,0,0,1-.909-1.428c-.084-.247-.155-.5-.255-.738a.238.238,0,0,0-.223-.047,2.011,2.011,0,0,0-.584.666,4.658,4.658,0,0,1-.674.836,7.418,7.418,0,0,1-1.749,1.376,7.8,7.8,0,0,1-1.008.648,5.5,5.5,0,0,1-1.245.341.947.947,0,0,1-.979-.921,1.838,1.838,0,0,1,.526-1.454c.192-.175.419-.312.629-.468s.44-.325.655-.494c.309-.242.608-.5.923-.733.513-.381,1.036-.747,1.553-1.122a1.165,1.165,0,0,0,.134-.133.689.689,0,0,0-.166-.087,13.244,13.244,0,0,1-2.344-.677c-.461-.187-.952-.3-1.409-.5a2.75,2.75,0,0,1-.6-.464c-.136-.113-.254-.249-.392-.36a.708.708,0,0,1-.2-.9c.048-.1.069-.207.113-.306.121-.27.348-.321.648-.292a6.987,6.987,0,0,0,.776-.114c.405-.009.811.027,1.217.047a1.992,1.992,0,0,1,.435.037c.314.087.627.187.932.3a6.262,6.262,0,0,1,.988.431A2.762,2.762,0,0,1,53.1,47.819c.081.155.2.106.267-.047.189-.437.4-.867.562-1.315a2.748,2.748,0,0,1,.763-1.306.816.816,0,0,0,.229-.305.918.918,0,0,1,1.059-.543c.318.022.651,0,.812.361a1.174,1.174,0,0,1,.158.484,7.42,7.42,0,0,1-.589,2.474.419.419,0,0,1-.033.044c-.167.277-.331.557-.5.831a.548.548,0,0,1-.14.113c-.011-.032-.024-.064-.034-.1-.014-.048-.027-.1-.04-.144-.04.023-.108.04-.113.07-.011.056-.006.16.025.173.2.087.105.223.033.3-.144.165-.122.272.075.335a4.07,4.07,0,0,1,1.34.926,2.552,2.552,0,0,1,.911,1.6,4.258,4.258,0,0,1,.036,1.4,1.939,1.939,0,0,1-.713,1.171.886.886,0,0,1-.975-.156c-.046-.044-.1-.077-.166-.131" transform="translate(-17.335 -16.434)" fill="#a6a7a7"/><path d="M23.8,49.918c.348.2.64.415.574.858a.432.432,0,0,1-.114.252,2.718,2.718,0,0,1-2.348.569,24.357,24.357,0,0,1-2.835-.737c-.155-.045-.162.014-.175.138-.062.589-.175,1.168-.282,1.75-.093.5-.186,1-.306,1.5s-.72,1.219-1.462.893a.911.911,0,0,1-.651-.677,4.7,4.7,0,0,1-.209-1.432,8.694,8.694,0,0,1,.247-1.088c.125-.572.237-1.147.361-1.719a3.015,3.015,0,0,1,.144-.5c.071-.172.019-.233-.144-.309a9.658,9.658,0,0,1-1.449-.739,7.719,7.719,0,0,1-1.875-1.741,2.335,2.335,0,0,1-.306-1.031.7.7,0,0,1,.319-.68.663.663,0,0,1,.675-.065,9.3,9.3,0,0,1,2.2,1.508c.327.287.6.638.9.956a1.062,1.062,0,0,0,.258.218c.042.022.184-.053.184-.057-.12-.423.17-.718.351-1.027a18.458,18.458,0,0,1,1.177-1.828,2.948,2.948,0,0,1,1.079-.963c.252-.116.5-.237.752-.354a.575.575,0,0,1,.825.505,1.06,1.06,0,0,1-.232.8,2.218,2.218,0,0,0-.27.6c-.074.18-.1.4-.377.377,0,.047-.006.093-.006.14,0,.064.028.153,0,.187a8.039,8.039,0,0,0-.948,1.713c-.119.211-.225.431-.345.642-.136.239-.1.348.176.374.437.041.879.04,1.313.1a7.342,7.342,0,0,1,1.293.256c.51.164,1,.4,1.511.616" transform="translate(-4.81 -16.159)" fill="#a6a7a7"/><path d="M42.342,2.672a1.012,1.012,0,0,1,.043-1.332A.7.7,0,0,1,43,1.073a9.065,9.065,0,0,1,1.244.026,7.25,7.25,0,0,1,1.6.574c.661.327,1.28.738,1.92,1.108.156.09.232.058.352-.125.371-.567.8-1.094,1.208-1.639a2.138,2.138,0,0,1,1.191-.76.631.631,0,0,1,.649.265,3.107,3.107,0,0,1,.067,2.525c-.089.335-.178.669-.279,1a2.119,2.119,0,0,1-.191.455c-.176.3-.143.405.132.632a12.632,12.632,0,0,1,1.039.935q.687.7,1.322,1.459a3.023,3.023,0,0,1,.437.743c.086.2,0,.5-.446.742A1.4,1.4,0,0,1,51.841,9a17.01,17.01,0,0,1-1.7-1.25c-.249-.191-.473-.415-.719-.609-.185-.147-.3-.021-.311.15a4.127,4.127,0,0,1-.68,1.913,4.17,4.17,0,0,1-1.342,1.217c-.26.178-.472.05-.561-.247-.021-.07-.119-.116-.182-.173,0,.069,0,.138,0,.208,0,.05,0,.1,0,.148-.048-.006-.11,0-.141-.023-.1-.091-.24-.177-.286-.3a7.627,7.627,0,0,1-.482-1.416,4.194,4.194,0,0,1,.072-1.162,3.727,3.727,0,0,1,.6-1.837c.167-.228-.023-.329-.152-.367a9.641,9.641,0,0,1-2.1-1.057,4.035,4.035,0,0,1-.737-.694c-.264-.265-.518-.541-.779-.834" transform="translate(-15.624 -0.089)" fill="#f28599"/><path d="M61.817,18.795c-.408-.026-.8-.057-1.193-.088-.014,0-.03.007-.041,0a2.7,2.7,0,0,1-1.2-.77.606.606,0,0,1,.247-.93,3.572,3.572,0,0,1,2.152-.371,4.27,4.27,0,0,1,1.555.455.914.914,0,0,0,.326.052,1.493,1.493,0,0,0-.17-.238,1.856,1.856,0,0,1-.576-1.067c-.023-.132-.126-.249-.157-.381-.1-.432-.2-.866-.278-1.3a4.832,4.832,0,0,1-.058-.6c-.016-.264.2-.369.372-.493.044-.033.189.02.253.075a4.575,4.575,0,0,1,.686.635c.237.3.409.652.62.975a3.152,3.152,0,0,1,.435,1.555,9.51,9.51,0,0,1,0,.975c0,.149.038.215.192.228a2.7,2.7,0,0,1,1.083.318c.3.164.609.309.921.447a1.547,1.547,0,0,1,.71.784c.06.114.112.232.176.343a.562.562,0,0,1,0,.591.521.521,0,0,1-.6.214,3.457,3.457,0,0,1-1.494-.768c-.191-.175-.4-.328-.6-.489a.35.35,0,0,0-.1-.037c-.011.045-.04.094-.031.135a2.168,2.168,0,0,1,.1.4c.006.463-.005.927-.02,1.389a2.356,2.356,0,0,1-.038.747,2.676,2.676,0,0,1-.55,1.012c-.169.178-.291.4-.45.587-.069.081-.2.194-.264.174a.419.419,0,0,1-.223-.258c-.135-.438-.264-.88-.363-1.327a2.193,2.193,0,0,1-.172-1.047c.083-.331.118-.676.215-1a6.418,6.418,0,0,1,.34-.818c.06-.134,0-.158-.111-.155-.562.016-1.123.033-1.7.054" transform="translate(-21.984 -4.841)" fill="#a6a7a7"/><path d="M9.432,27.445c.589.27,1.181.489,1.723.8a.91.91,0,0,1,.562.736c.014.4-.159.583-.636.671a12.17,12.17,0,0,1-3.19.052c-.152-.011-.306.033-.459.028-.223-.007-.445-.042-.667-.053a1.726,1.726,0,0,0-.287.032,1.514,1.514,0,0,0,.062.284c.282.65.622,1.281.843,1.951a17.151,17.151,0,0,1,.447,2,1.361,1.361,0,0,1-.7,1.125.737.737,0,0,1-.782-.143,3.424,3.424,0,0,1-1.038-1.283c-.2-.448-.5-.856-.655-1.317a15.934,15.934,0,0,1-.323-1.6c-.06-.277-.17-.545.006-.816-.069-.04-.136-.109-.206-.113-.173-.005-.348.041-.519.026-.152-.013-.314-.14-.444-.108s-.216.223-.345.305c-.52.331-1.053.639-1.572.971a.752.752,0,0,1-.971-.1.674.674,0,0,1-.249-.754,3.6,3.6,0,0,1,.986-1.52,6.369,6.369,0,0,1,.9-.721,1,1,0,0,1,.444-.181c.457-.053.916-.081,1.376-.105.184-.009.247-.077.228-.261-.036-.345-.061-.692-.079-1.039-.036-.707-.077-1.413-.091-2.12a2.4,2.4,0,0,1,.095-.891,5.869,5.869,0,0,1,.568-.947,1.127,1.127,0,0,1,1.287-.5.824.824,0,0,1,.683.663,2.525,2.525,0,0,1-.1,1.523,10.223,10.223,0,0,0-.413,1.027,7.294,7.294,0,0,0-.179,1.193,6.318,6.318,0,0,0,0,.866c.013.286.175.38.44.283a5.472,5.472,0,0,1,2.152-.364,3.863,3.863,0,0,1,1.105.406" transform="translate(0 -8.094)" fill="#a6a7a7"/><path d="M34.585,57.936c.656-.389,1.276-.788,1.918-1.145a1.8,1.8,0,0,1,.735-.19c.287-.02.392.207.461.47.138.536-.252.8-.5,1.14a13.447,13.447,0,0,1-.945,1.193c-.289.315-.638.575-.956.864-.1.09-.184.194-.275.292a1.633,1.633,0,0,0,.385.163c.326.049.659.055.986.1.415.06.826.146,1.241.213.255.042.515.055.769.106a.545.545,0,0,1,.417.4,5.2,5.2,0,0,0,.314.564c.072.144.046.238-.128.33a2.563,2.563,0,0,1-1.073.3,2.7,2.7,0,0,0-.6.062,1.223,1.223,0,0,1-.8-.076,3.127,3.127,0,0,0-.548-.135,6.589,6.589,0,0,1-1.5-.492,6.585,6.585,0,0,0-1.245-.355.49.49,0,0,0-.363.128c-.209.186-.372.424-.586.6a1.851,1.851,0,0,1-.509.257c-.337.136-.672.279-1.019.381a4.368,4.368,0,0,1-1.747.262,1.882,1.882,0,0,1-.772-.37,2.986,2.986,0,0,1-.482-.5.416.416,0,0,1,.216-.7c.279-.095.543-.241.825-.323.3-.087.611-.115.915-.186s.62-.164.927-.252c.069-.019.127-.078.2-.093.211-.045.343-.07.1-.3a4.566,4.566,0,0,1-.765-.862,2.251,2.251,0,0,1-.58-1.227c0-.193-.171-.382-.19-.58-.041-.431-.038-.868-.045-1.3a.43.43,0,0,1,.313-.462.762.762,0,0,1,.732.1,3.913,3.913,0,0,1,.9,1.031,6.041,6.041,0,0,0,1.484,1.7c.116.084.194.224.314.293a.335.335,0,0,0,.3-.006.933.933,0,0,0,.3-.348,3.44,3.44,0,0,1,.886-1.047" transform="translate(-10.252 -20.838)" fill="#f28599"/><path d="M8.758,49.269a2.568,2.568,0,0,0,0-.406,3.933,3.933,0,0,1,.135-1.6c.048-.2.041-.413.07-.619.006-.044.064-.081.1-.121.034.031.085.055.1.092a1.908,1.908,0,0,1,.138.444,1.325,1.325,0,0,0,.561.884,18.2,18.2,0,0,0,1.462,1.247,7.464,7.464,0,0,1,1.106,1.059,1.6,1.6,0,0,1,.384,1.418.712.712,0,0,0,.176.674.778.778,0,0,1,.174.359c.057.288-.07.4-.357.325a5.111,5.111,0,0,1-1.416-.606,1.118,1.118,0,0,0-.222-.1c-.548-.185-.821-.7-1.237-1.042-.192-.159-.348-.362-.528-.538a2.62,2.62,0,0,1-.584-1.331c-.011-.043-.037-.081-.058-.142" transform="translate(-3.235 -17.26)" fill="#f28599"/><path d="M14.025,9.431a3.329,3.329,0,0,0,.513.011,4.974,4.974,0,0,1,2.018.217c.252.066.52.063.78.106.055.009.1.083.148.126-.039.042-.072.106-.12.122a2.415,2.415,0,0,1-.564.161,1.674,1.674,0,0,0-1.133.683,22.926,22.926,0,0,0-1.618,1.811,9.382,9.382,0,0,1-1.371,1.367,2.027,2.027,0,0,1-1.8.443.9.9,0,0,0-.857.2.98.98,0,0,1-.458.209c-.365.064-.5-.1-.4-.46a6.427,6.427,0,0,1,.807-1.77,1.387,1.387,0,0,0,.131-.278c.25-.687.906-1.017,1.352-1.532.206-.239.469-.429.694-.652a3.309,3.309,0,0,1,1.7-.7c.055-.013.1-.044.181-.07" transform="translate(-3.387 -3.49)" fill="#f28599"/><path d="M54.506,37.084c3.112-1.632,5.133-3.958,7.535-6.417,1.575-1.611,2.965-1.6,3.239.859a13.6,13.6,0,0,1-.982,6.793c-.632,1.374-2.218,3.006-2.257.494-.026-1.63.56-3.205.476-4.931-.731.283-1.2,1.206-1.835,1.72a14.876,14.876,0,0,1-2.9,1.864c-.946.447-4.608,1.793-4.372-.486a2.746,2.746,0,0,1,1.093.105" transform="translate(-19.812 -10.964)" fill="#f28599"/><path d="M63.856,40.276c-.653-.091-4.35.038-3.553,1.159.648.911,4.018.276,4.1-.975" transform="translate(-22.331 -14.934)" fill="#f28599"/><path d="M31.962,28.762c-.361-.338-.7-.7-1.037-1.062-.087-.091-.155-.2-.243-.292-.537-.563-1.263-.877-1.82-1.428a3.276,3.276,0,0,0-1.657-1.06c-.441-.084-.874-.214-1.309-.331-.067-.018-.16-.069-.174-.121s.049-.142.1-.183c.343-.261.692-.515,1.043-.767.159-.116.33-.215.486-.337a13.686,13.686,0,0,0,1.634-1.327,13.354,13.354,0,0,0,1.54-2.041,6.056,6.056,0,0,0,.815-1.845c.166-.765-.043-1.2-.988-1.177-.186,0-.37.022-.554.04a3.96,3.96,0,0,0-1.749.35c-.138.083-.282.156-.419.24-.423.26-.855.509-1.264.793-.27.187-.482.463-.76.634a6.759,6.759,0,0,0-2.068,2.094c-.43.648-.287.749-.863.091q-.367-.42-.747-.828c-.006-.014-.009-.029-.017-.043a2.706,2.706,0,0,0-.473-.525,2.852,2.852,0,0,0-.544-.36c-.072-.057-.163-.1-.235-.152-.34-.241-.7-.459-1.045-.687a5.517,5.517,0,0,0-2.245-.994,4.853,4.853,0,0,1-.84-.125.588.588,0,0,0-.56.121,1.612,1.612,0,0,0-.6,1.175,2.615,2.615,0,0,0,.34,1.877,7.455,7.455,0,0,0,1.773,2.181,10.329,10.329,0,0,0,1.567,1.2,10.159,10.159,0,0,1,1.021.668c.074.052.149.095.04.243-.388.525-.714,1.1-1.1,1.62a10.374,10.374,0,0,0-1.169,2.213,6.059,6.059,0,0,0-.53,2.968c.053.564.182,1.049.8,1.267a1.7,1.7,0,0,1,.309.038.946.946,0,0,0,.9-.045,6.332,6.332,0,0,0,1.05-.84,8.739,8.739,0,0,0,1.475-1.534c.2-.357.507-.658.71-1.015.318-.56.593-1.145.877-1.723.1-.194.2-.295.413-.153.462.308.925.616,1.391.917a5.354,5.354,0,0,0,.625.364c.359.168.733.308,1.1.469a5.9,5.9,0,0,0,.665.318c.419.125.85.211,1.277.3a6.259,6.259,0,0,0,1.163.219,9.495,9.495,0,0,0,1.513-.134c.267-.038.611-.032.706-.364a.871.871,0,0,0-.323-.9" transform="translate(-5.684 -6.229)" fill="#f28599"/></g></svg>