<svg xmlns="http://www.w3.org/2000/svg" xmlns:xlink="http://www.w3.org/1999/xlink" width="60" height="60" viewBox="0 0 60 60"><defs><clipPath id="a"><rect width="23.325" height="50.122" fill="#939a9a"/></clipPath></defs><g transform="translate(-5063 713)"><rect width="60" height="60" transform="translate(5063 -713)" fill="none"/><g transform="translate(5082 -708)"><g clip-path="url(#a)"><path d="M69.486,51.225a.586.586,0,0,1-.551-.451l-.251-1.252a6.464,6.464,0,0,0-4.708-4.859c-.1,0-.2-.05-.3-.05a8.125,8.125,0,0,1-4.458-1.753,3.019,3.019,0,0,1-.551-3.206,2.976,2.976,0,0,1,2.7-1.753,4.153,4.153,0,0,1,2.855,1.052.568.568,0,1,1-.851.752,3.728,3.728,0,0,0-2.054-.7,1.937,1.937,0,0,0-1.7,1.1,1.86,1.86,0,0,0,.351,2,7.518,7.518,0,0,0,3.807,1.4c.15,0,.251.05.4.05a7.451,7.451,0,0,1,5.56,5.71l.3,1.252a.534.534,0,0,1-.4.651.184.184,0,0,1-.15.05Z" transform="translate(-53.204 -34.511)" fill="#939a9a"/><path d="M51,116.241a.452.452,0,0,1-.251-.05,5.114,5.114,0,0,1-2.655-5.309c.3-1.8,1.6-3.456,3.907-5.059.451-.3.9-.6,1.452-.9a25.355,25.355,0,0,0,2.7-1.8c.651-.5.751-2.154.4-3.156A5.913,5.913,0,0,1,51,95.5a16.474,16.474,0,0,1-.251-4.408.577.577,0,1,1,1.152.05,19.124,19.124,0,0,0,.251,4.057,4.809,4.809,0,0,0,4.809,3.656.552.552,0,0,1,.5.3c.651,1.252.7,3.857-.551,4.859-.851.7-1.9,1.3-2.8,1.9-.5.3-1,.6-1.4.9-2.054,1.4-3.156,2.8-3.406,4.308a4.049,4.049,0,0,0,2.054,4.107.541.541,0,0,1,.251.751A1.042,1.042,0,0,1,51,116.241Z" transform="translate(-43.732 -82.447)" fill="#939a9a"/><path d="M7.566,367.693h-.1a9.266,9.266,0,0,1-5.66-3.656,9.03,9.03,0,0,1-1.753-6.361c.351-3.206,3.206-6.512,5.109-8.715a.568.568,0,1,1,.851.751c-1.8,2.054-4.508,5.209-4.859,8.114a8.254,8.254,0,0,0,6.411,8.815.566.566,0,0,1,.451.651C8.067,367.493,7.817,367.693,7.566,367.693Z" transform="translate(0 -317.571)" fill="#f28599"/><path d="M86.633,50.122a.746.746,0,0,1-.451-.2c-2.254-3.005-.751-8.866.351-13.123.251-1.052.5-2,.7-2.8a26.267,26.267,0,0,0,.15-11.47c-.351-2.054-.651-3.656.4-5.56A11.9,11.9,0,0,0,86.633,3.54a7.078,7.078,0,0,0-6.612-2.354,6.855,6.855,0,0,0-5.209,3.206.56.56,0,0,1-1-.5c.9-1.953,3.306-3.406,6.061-3.807a8.372,8.372,0,0,1,7.613,2.755,13.055,13.055,0,0,1,1.352,14.626c-.9,1.553-.651,2.755-.3,4.809a28.334,28.334,0,0,1-.15,11.921c-.15.851-.451,1.8-.7,2.855-1.052,4.057-2.5,9.617-.551,12.171a.565.565,0,0,1-.1.8,1.191,1.191,0,0,1-.4.1Z" transform="translate(-67.146 0)" fill="#939a9a"/><path d="M97.269,291.456a.552.552,0,0,1-.5-.3.529.529,0,0,1,.251-.751c.351-.15,7.764-4.057,6.812-15.577a.528.528,0,0,1,.5-.6.561.561,0,0,1,.6.5c1,12.322-7.313,16.629-7.413,16.629a.853.853,0,0,1-.251.1Z" transform="translate(-88.05 -249.698)" fill="#939a9a"/></g></g></g></svg>