<?xml version="1.0" encoding="utf-8"?>
<!-- Generator: Adobe Illustrator 27.9.0, SVG Export Plug-In . SVG Version: 6.00 Build 0)  -->
<svg version="1.1" id="レイヤー_1" xmlns="http://www.w3.org/2000/svg" xmlns:xlink="http://www.w3.org/1999/xlink" x="0px"
	 y="0px" viewBox="0 0 60 60" style="enable-background:new 0 0 60 60;" xml:space="preserve">
<style type="text/css">
	.st0{fill:none;}
	.st1{fill:#F28599;}
	.st2{fill:none;stroke:#939A9A;stroke-width:1.1;stroke-linecap:round;stroke-miterlimit:10;}
</style>
<rect class="st0" width="60" height="60"/>
<g>
	<path class="st1" d="M30.1,31.3c-0.3,0-0.6-0.3-0.6-0.6c0,0,0,0,0,0V26c0-0.3,0.2-0.6,0.6-0.6c0,0,0,0,0,0c0.3,0,0.6,0.2,0.6,0.6
		c0,0,0,0,0,0l0,0v4.7C30.7,31,30.4,31.3,30.1,31.3C30.1,31.3,30.1,31.3,30.1,31.3"/>
	<path class="st1" d="M27.2,31.6c-0.2,0-0.4-0.1-0.5-0.3l-1.8-3.7c-0.2-0.3-0.1-0.6,0.2-0.8c0.3-0.2,0.6-0.1,0.8,0.2
		c0,0,0.1,0.1,0.1,0.1l1.8,3.7c0.1,0.3,0,0.6-0.3,0.8C27.3,31.6,27.2,31.6,27.2,31.6z"/>
	<path class="st1" d="M33,31.6c-0.1,0-0.2,0-0.2,0c-0.3-0.1-0.4-0.4-0.3-0.7l0,0l1.8-3.7c0.2-0.3,0.5-0.3,0.8-0.2
		c0.2,0.1,0.3,0.4,0.2,0.6l-1.8,3.7C33.4,31.5,33.2,31.6,33,31.6z"/>
	<path class="st2" d="M15.4,16.7c-0.4,1.4-0.8,2.9-1,4.4c-0.4,1.6,0.5,3.1,2.2,5.7c1.2,1.8,3.7,3.9,6.1,6.3c0.6,0.8,1.8,1,2.6,0.5
		c0.9-0.6,2.2-0.3,2.7,0.7c0,0.1,0.1,0.1,0.1,0.2"/>
	<path class="st2" d="M9.6,16.7c-3.5,5.7-2.1,6.6,1.4,10.8s10.9,10.3,12.6,11.5s5.1,2.8,7.2,2c2.1-0.8,0.7-2.6-0.4-3.1
		c-1.1-0.4-2.1-1-2.8-1.9"/>
	<path class="st2" d="M44.5,16.7c0.5,1.4,0.9,2.9,1.2,4.4c0.4,1.6-0.5,3.1-2.2,5.7c-1.2,1.8-3.7,3.9-6.1,6.3c-0.6,0.8-1.8,1-2.6,0.5
		c-0.9-0.6-2.2-0.3-2.8,0.7c0,0.1-0.1,0.1-0.1,0.2"/>
	<path class="st2" d="M31.8,36.9c0.3-0.3,0.6-0.5,0.9-0.8"/>
	<path class="st2" d="M50.3,16.7c3.5,5.7,2.4,6.6-1.1,10.9c-3.5,4.3-10.8,10.3-12.6,11.5c-1.2,0.8-2.5,1.5-3.9,1.9"/>
	<path class="st2" d="M14.3,31c-0.9,4.9-0.6,9.9,0.8,14.7"/>
	<path class="st2" d="M18.7,14.2v2.6c0,1.1-1.7,4.9-3,8.4"/>
	<path class="st2" d="M45.9,31c0.9,4.9,0.6,9.9-0.8,14.7"/>
	<path class="st2" d="M41.5,14.2v2.6c0,1.1,1.7,4.9,3,8.4"/>
</g>
</svg>
