<svg xmlns="http://www.w3.org/2000/svg" width="37.995" height="38.003" viewBox="0 0 37.995 38.003"><g transform="translate(1698 -4344)"><g transform="translate(-2878 4284.003)"><rect width="37.995" height="38.003" rx="18.998" transform="translate(1180 59.997)" fill="#f28599"/><g transform="translate(1191.001 71.687)"><rect width="13.851" height="13.869" transform="translate(1 0.31)" fill="none"/><path d="M8.857,0l0,0L9.894,1.044q-.057.057-.115.112A3.731,3.731,0,0,0,9.864,6.3L8.827,7.338a5.163,5.163,0,0,1-1.5-3.714L1.09,9.894,0,8.793,6.191,2.571A5.094,5.094,0,0,1,2.6,1.057L3.638.016a3.673,3.673,0,0,0,5.1.1Q8.8.054,8.853,0Z" transform="translate(7.997 0.32) rotate(45)" fill="#fff" fill-rule="evenodd"/></g></g></g></svg>