<svg xmlns="http://www.w3.org/2000/svg" width="60" height="60" viewBox="0 0 60 60"><g transform="translate(-4770 489)"><rect width="60" height="60" transform="translate(4770 -489)" fill="none"/><g transform="translate(4583.436 -492.747)"><g transform="translate(196.564 11.747)"><path d="M230.918,169.924a.488.488,0,0,1-.4-.18l-2.743-3.372a.544.544,0,0,1,.854-.674l2.743,3.327a.566.566,0,0,1-.09.764A.719.719,0,0,1,230.918,169.924Z" transform="translate(-209.382 -152.21)" fill="#939a9a"/><path d="M25,197.171H4.5a4.509,4.509,0,0,1-4.5-4.5V173.7a4.519,4.519,0,0,1,1.034-2.877L5.171,165.7a.544.544,0,0,1,.854.674L1.8,171.5a3.543,3.543,0,0,0-.764,2.2v18.973A3.463,3.463,0,0,0,4.5,196.137H25.043a.519.519,0,0,1,.539.539.585.585,0,0,1-.585.495Z" transform="translate(0 -152.211)" fill="#939a9a"/><path d="M34.137,86.492H18.086a2.965,2.965,0,0,1-2.967-2.967V81.366A2.965,2.965,0,0,1,18.086,78.4H34.137A2.965,2.965,0,0,1,37.1,81.366v2.158a2.994,2.994,0,0,1-2.968,2.967Zm-16.051-7.1a1.919,1.919,0,0,0-1.933,1.933v2.158a1.919,1.919,0,0,0,1.933,1.933H34.137a1.919,1.919,0,0,0,1.933-1.933V81.321a1.919,1.919,0,0,0-1.933-1.933Z" transform="translate(-13.905 -72.105)" fill="#939a9a"/><path d="M100.78,107.8a.519.519,0,0,1-.539-.539V104.7a.539.539,0,1,1,1.079,0v2.563a.547.547,0,0,1-.539.539" transform="translate(-92.193 -95.797)" fill="#939a9a"/><path d="M145.58,107.8a.519.519,0,0,1-.539-.539V104.7a.539.539,0,1,1,1.079,0v2.563A.52.52,0,0,1,145.58,107.8Z" transform="translate(-133.396 -95.797)" fill="#939a9a"/><path d="M190.94,107.8a.519.519,0,0,1-.539-.539V104.7a.539.539,0,1,1,1.079,0v2.563a.579.579,0,0,1-.539.539" transform="translate(-175.114 -95.797)" fill="#939a9a"/><path d="M375.317,197.155a.519.519,0,0,1-.539-.539V178.406a1.5,1.5,0,0,0-1.484-1.484h-4.271a.539.539,0,1,1,0-1.079h4.271a2.562,2.562,0,0,1,2.563,2.563v18.209A.579.579,0,0,1,375.317,197.155Z" transform="translate(-338.899 -161.726)" fill="#939a9a"/><path d="M290.62,124.015a.519.519,0,0,1-.539-.539V105.266a2.562,2.562,0,0,1,2.563-2.563h.764V98.567a2.254,2.254,0,0,1,2.248-2.248h2.518a2.254,2.254,0,0,1,2.248,2.248v4.676a.539.539,0,0,1-1.079,0V98.567a1.19,1.19,0,0,0-1.169-1.169h-2.518a1.19,1.19,0,0,0-1.169,1.169v4.676a.519.519,0,0,1-.539.539h-1.3a1.5,1.5,0,0,0-1.484,1.484v18.209a.52.52,0,0,1-.54.54Z" transform="translate(-266.792 -88.586)" fill="#939a9a"/><path d="M369.017,8.767a.519.519,0,0,1-.539-.539V.539a.539.539,0,0,1,1.079,0V8.273a.539.539,0,0,1-.539.495Z" transform="translate(-338.893)" fill="#939a9a"/><path d="M267.013,461.4H247.5a.539.539,0,1,1,0-1.079h19.513a.519.519,0,0,1,.539.539.58.58,0,0,1-.539.539Z" transform="translate(-227.133 -423.364)" fill="#939a9a"/><path d="M402.613,267.641H398.7a.539.539,0,0,1,0-1.079h3.911a.519.519,0,0,1,.539.539.62.62,0,0,1-.539.539" transform="translate(-366.195 -245.161)" fill="#f28599"/><path d="M402.613,319.161H398.7a.539.539,0,0,1,0-1.079h3.911a.519.519,0,0,1,.539.539.62.62,0,0,1-.539.539" transform="translate(-366.195 -292.544)" fill="#f28599"/><path d="M402.613,370.681H398.7a.539.539,0,0,1,0-1.079h3.911a.519.519,0,0,1,.539.539.62.62,0,0,1-.539.539" transform="translate(-366.195 -339.928)" fill="#f28599"/><path d="M335.42,468.323a.519.519,0,0,1-.539-.539v-6.924a.539.539,0,1,1,1.079,0v6.924A.52.52,0,0,1,335.42,468.323Z" transform="translate(-307.995 -423.363)" fill="#939a9a"/><path d="M402.057,468.323a.519.519,0,0,1-.539-.539v-6.924a.539.539,0,1,1,1.079,0v6.924A.519.519,0,0,1,402.057,468.323Z" transform="translate(-369.281 -423.363)" fill="#939a9a"/><path d="M315.386,547.641H305.18a.539.539,0,0,1,0-1.079h10.206a.539.539,0,1,1,0,1.079Z" transform="translate(-280.183 -502.681)" fill="#939a9a"/><path d="M108.5,275.414a3.8,3.8,0,0,1-3.777-3.777V265.3a3.777,3.777,0,0,1,7.553,0v6.339a3.77,3.77,0,0,1-3.777,3.777m0-12.859a2.754,2.754,0,0,0-2.743,2.743v6.339a2.743,2.743,0,0,0,5.485,0V265.3a2.725,2.725,0,0,0-2.743-2.743" transform="translate(-96.313 -240.524)" fill="#f28599"/><path d="M111.781,342.121h-6.519a.539.539,0,1,1,0-1.079h6.519a.519.519,0,0,1,.539.539.579.579,0,0,1-.539.539" transform="translate(-96.314 -313.661)" fill="#f28599"/></g></g></g></svg>