<svg xmlns="http://www.w3.org/2000/svg" xmlns:xlink="http://www.w3.org/1999/xlink" width="60" height="60" viewBox="0 0 60 60"><defs><clipPath id="a"><rect width="46.031" height="35.673" fill="#939a9a"/></clipPath></defs><g transform="translate(-4755 625)"><rect width="60" height="60" transform="translate(4755 -625)" fill="none"/><g transform="translate(4762 -613)"><g clip-path="url(#a)"><path d="M237.9,311.7a.592.592,0,0,1-.587-.587v-5.07a.587.587,0,1,1,1.174,0v5.123A.548.548,0,0,1,237.9,311.7Z" transform="translate(-214.702 -276.352)" fill="#939a9a"/><path d="M238.41,276.293a.485.485,0,0,1-.374-.16.581.581,0,0,1,0-.8l3.309-3.309a.566.566,0,0,1,.8.8l-3.308,3.309A.6.6,0,0,1,238.41,276.293Z" transform="translate(-215.208 -245.957)" fill="#939a9a"/><path d="M68.165,168.522a.52.52,0,0,1-.534-.427,31.885,31.885,0,0,1-1.067-12.06c.107-1.387.32-2.722.534-4a39.385,39.385,0,0,1,1.227-4.8.557.557,0,1,1,1.068.32,29.537,29.537,0,0,0-1.174,4.643c-.213,1.227-.427,2.561-.534,3.9a32.154,32.154,0,0,0,1.067,11.687.562.562,0,0,1-.374.694.4.4,0,0,1-.213.053Z" transform="translate(-60.065 -132.85)" fill="#939a9a"/><path d="M103.695,34.611a.321.321,0,0,1-.213-.053.594.594,0,0,1-.32-.747c.374-.96.694-1.6.907-2.081.534-1.121.534-1.121.48-3.415V26.606a.561.561,0,1,1,1.121-.053v1.708c.053,2.455.053,2.561-.587,3.9-.213.427-.48,1.067-.854,2.028A.545.545,0,0,1,103.695,34.611Z" transform="translate(-93.3 -23.54)" fill="#939a9a"/><path d="M358.409,34.53a.643.643,0,0,1-.534-.374l-.267-.64c-1.014-2.561-1.014-2.615-1.014-6.19v-.213a.549.549,0,0,1,.587-.534.519.519,0,0,1,.534.587v.213c-.053,3.362-.053,3.362.907,5.763l.267.64a.618.618,0,0,1-.32.747h-.16Z" transform="translate(-322.613 -24.045)" fill="#939a9a"/><path d="M391.03,153.1a.568.568,0,0,1-.534-.48,37.741,37.741,0,0,0-1.174-4.7.557.557,0,0,1,1.068-.32,37.894,37.894,0,0,1,1.227,4.856.553.553,0,0,1-.427.64Z" transform="translate(-352.192 -133.166)" fill="#939a9a"/><path d="M206.491,275.785a.485.485,0,0,1-.374-.16l-3.362-3.362a.566.566,0,0,1,.8-.8l3.362,3.362a.581.581,0,0,1,0,.8A.6.6,0,0,1,206.491,275.785Z" transform="translate(-183.289 -245.449)" fill="#939a9a"/><path d="M21.547,18.542h0c-.053,0-2.668-.107-5.07-.427-3.789-.534-11.207-4.162-15.422-8.325a3.545,3.545,0,0,1-.8-3.842A20.427,20.427,0,0,1,2.71,1.466L3.617.238a.535.535,0,0,1,.8-.107.535.535,0,0,1,.107.8L3.617,2.159A19.673,19.673,0,0,0,1.269,6.429,2.385,2.385,0,0,0,1.8,9.044c4,3.949,11.26,7.525,14.782,8a47.315,47.315,0,0,0,4.91.427c1.441-.107,2.348-.534,2.348-1.227a.97.97,0,0,0-.854-.907,17.29,17.29,0,0,1-2.882-.374.557.557,0,1,1,.32-1.068,14.53,14.53,0,0,0,2.668.32,2.081,2.081,0,0,1,1.921,2.028C25.016,16.728,24.749,18.382,21.547,18.542Z" transform="translate(0 0)" fill="#939a9a"/><path d="M74.411,18.554a4.849,4.849,0,0,1-2.668-.854l-4-2.722A5.187,5.187,0,0,1,65.5,10.016c.213-1.547.907-2.188,3.362-4.322a.583.583,0,0,1,.8.053.537.537,0,0,1-.054.8C67.1,8.735,66.78,9.109,66.62,10.176a4.015,4.015,0,0,0,1.761,3.842l4,2.722a3.361,3.361,0,0,0,2.722.587,4.135,4.135,0,0,0,1.494-.8,2.527,2.527,0,0,1,3.1-.267.567.567,0,1,1-.747.854,1.527,1.527,0,0,0-1.6.32,5.176,5.176,0,0,1-1.921,1.014,5.917,5.917,0,0,1-1.014.107Z" transform="translate(-59.214 -5.028)" fill="#939a9a"/><path d="M268.144,18.8a.621.621,0,0,1-.587-.534.548.548,0,0,1,.534-.587c1.227-.107,2.348-.213,3.309-.32,3.522-.48,10.78-4.109,14.782-8a2.386,2.386,0,0,0,.534-2.615,19.493,19.493,0,0,0-2.348-4.216l-.907-1.281A.607.607,0,0,1,283.673.5a.646.646,0,0,1,.8.107l.907,1.227a20.464,20.464,0,0,1,2.455,4.483,3.546,3.546,0,0,1-.8,3.842c-4.216,4.162-11.634,7.791-15.422,8.325a29.577,29.577,0,0,1-3.469.32h0Z" transform="translate(-242.06 -0.364)" fill="#939a9a"/><path d="M257.33,19.273a3.517,3.517,0,0,1-2.134-.694,2.6,2.6,0,0,0-3.415.16.567.567,0,0,1-.747-.854,3.715,3.715,0,0,1,4.8-.213,3.346,3.346,0,0,0,3.9-.374l4.056-2.775a3.869,3.869,0,0,0,1.654-3.735c-.16-1.121-.48-1.494-2.988-3.682a.567.567,0,0,1,.747-.854c2.455,2.134,3.148,2.775,3.362,4.376a5.014,5.014,0,0,1-2.134,4.8l-4.056,2.775a5.678,5.678,0,0,1-3.042,1.067Z" transform="translate(-226.923 -5.534)" fill="#939a9a"/><path d="M237.344,32.453a.592.592,0,0,1-.587-.587v-4.7a.587.587,0,1,1,1.174,0v4.7a.592.592,0,0,1-.587.587" transform="translate(-214.195 -24.05)" fill="#f28599"/><path d="M190.5,45.556a.588.588,0,0,1-.534-.32L188.206,41.5a.561.561,0,0,1,1.014-.48l1.761,3.735a.593.593,0,0,1-.267.747C190.661,45.5,190.554,45.556,190.5,45.556Z" transform="translate(-170.234 -36.833)" fill="#f28599"/><path d="M268.552,45.338c-.107,0-.16,0-.213-.053a.546.546,0,0,1-.267-.747l1.761-3.735a.561.561,0,0,1,1.014.48l-1.761,3.735A.65.65,0,0,1,268.552,45.338Z" transform="translate(-242.468 -36.615)" fill="#f28599"/><path d="M390.417,167.269a.4.4,0,0,1-.213-.053.562.562,0,0,1-.374-.694,32.153,32.153,0,0,0,1.067-11.687c-.107-1.334-.32-2.668-.534-3.9a29.522,29.522,0,0,0-1.174-4.643.557.557,0,0,1,1.068-.32,39.364,39.364,0,0,1,1.227,4.8c.214,1.281.427,2.615.534,4a31.885,31.885,0,0,1-1.067,12.06.52.52,0,0,1-.534.427Z" transform="translate(-352.09 -131.716)" fill="#939a9a"/></g></g></g></svg>